<svg width="67" height="41" viewBox="0 0 67 41" fill="none" xmlns="http://www.w3.org/2000/svg">
<path d="M1.77995 0.159965L5.47995 0.179965C7.41328 0.179965 9.11328 0.879965 10.58 2.27997C12.0466 3.66663 12.78 5.37997 12.78 7.41997C12.78 9.44663 12.06 11.1866 10.62 12.64C9.19328 14.0933 7.45995 14.82 5.41995 14.82H1.75995C0.946618 14.82 0.439951 14.6533 0.239951 14.32C0.0799512 14.04 -4.87715e-05 13.6133 -4.87715e-05 13.04V1.91997C-4.87715e-05 1.59997 0.00661788 1.36663 0.0199512 1.21996C0.0466179 1.0733 0.113285 0.899965 0.219951 0.699965C0.406618 0.339965 0.926618 0.159965 1.77995 0.159965ZM5.47995 11.28C6.43995 11.28 7.30662 10.9266 8.07995 10.22C8.85329 9.49997 9.23995 8.59997 9.23995 7.51997C9.23995 6.43997 8.85995 5.53997 8.09995 4.81996C7.35329 4.08663 6.47329 3.71996 5.45995 3.71996H3.53995V11.28H5.47995ZM20.962 -3.50475e-05C22.9353 -3.50475e-05 24.6486 0.713298 26.102 2.13996C27.5553 3.56663 28.282 5.33997 28.282 7.45997C28.282 9.56663 27.5887 11.3666 26.202 12.86C24.8153 14.34 23.1086 15.08 21.082 15.08C19.0553 15.08 17.3286 14.3466 15.902 12.88C14.4886 11.4133 13.782 9.66663 13.782 7.63997C13.782 6.5333 13.982 5.49997 14.382 4.53996C14.782 3.56663 15.3153 2.7533 15.982 2.09997C16.6486 1.44663 17.4153 0.933298 18.282 0.559965C19.1486 0.186632 20.042 -3.50475e-05 20.962 -3.50475e-05ZM17.322 7.53997C17.322 8.72663 17.702 9.6933 18.462 10.44C19.2353 11.1733 20.0953 11.54 21.042 11.54C21.9886 11.54 22.842 11.18 23.602 10.46C24.362 9.73997 24.742 8.7733 24.742 7.55997C24.742 6.34663 24.3553 5.3733 23.582 4.63996C22.822 3.90663 21.9686 3.53997 21.022 3.53997C20.0753 3.53997 19.222 3.9133 18.462 4.65997C17.702 5.3933 17.322 6.3533 17.322 7.53997ZM33.1298 11.88H38.5698C39.0098 11.88 39.3298 11.9333 39.5298 12.04C39.7298 12.1333 39.8631 12.2866 39.9298 12.5C39.9965 12.7133 40.0298 13 40.0298 13.36C40.0298 13.7066 39.9965 13.9866 39.9298 14.2C39.8631 14.4133 39.7498 14.56 39.5898 14.64C39.3365 14.7733 38.9898 14.84 38.5498 14.84H31.3498C30.4165 14.84 29.8698 14.5866 29.7098 14.08C29.6298 13.8666 29.5898 13.5266 29.5898 13.06V1.93997C29.5898 1.6333 29.5965 1.40663 29.6098 1.25997C29.6365 1.09997 29.7031 0.919965 29.8098 0.719965C29.9965 0.359965 30.5165 0.179965 31.3698 0.179965C32.3031 0.179965 32.8565 0.426632 33.0298 0.919965C33.0965 1.14663 33.1298 1.4933 33.1298 1.95996V11.88ZM50.4881 11L50.8481 10.74C51.3014 10.4733 51.6214 10.34 51.8081 10.34C52.2214 10.34 52.6681 10.7133 53.1481 11.46C53.4414 11.9266 53.5881 12.3 53.5881 12.58C53.5881 12.86 53.4947 13.0933 53.3081 13.28C53.1347 13.4666 52.9281 13.6333 52.6881 13.78C52.4481 13.9266 52.2147 14.0666 51.9881 14.2C51.7747 14.3333 51.3281 14.5066 50.6481 14.72C49.9681 14.9333 49.3081 15.04 48.6681 15.04C48.0414 15.04 47.4014 14.96 46.7481 14.8C46.1081 14.6266 45.4414 14.3466 44.7481 13.96C44.0681 13.56 43.4547 13.08 42.9081 12.52C42.3614 11.9466 41.9081 11.22 41.5481 10.34C41.2014 9.44663 41.0281 8.47997 41.0281 7.43997C41.0281 6.39997 41.2014 5.45997 41.5481 4.61997C41.8947 3.76663 42.3347 3.06663 42.8681 2.51996C43.4147 1.95996 44.0347 1.4933 44.7281 1.11996C46.0347 0.399965 47.3481 0.0399656 48.6681 0.0399656C49.2947 0.0399656 49.9281 0.139966 50.5681 0.339965C51.2214 0.526632 51.7147 0.719965 52.0481 0.919965L52.5281 1.19997C52.7681 1.34663 52.9547 1.46663 53.0881 1.55997C53.4347 1.83997 53.6081 2.15997 53.6081 2.51996C53.6081 2.86663 53.4681 3.2333 53.1881 3.61996C52.6681 4.33997 52.2014 4.69997 51.7881 4.69997C51.5481 4.69997 51.2081 4.5533 50.7681 4.25996C50.2081 3.80663 49.4614 3.57997 48.5281 3.57997C47.6614 3.57997 46.8081 3.87997 45.9681 4.47997C45.5681 4.7733 45.2347 5.18663 44.9681 5.71997C44.7014 6.2533 44.5681 6.85997 44.5681 7.53997C44.5681 8.20663 44.7014 8.80663 44.9681 9.33997C45.2347 9.8733 45.5747 10.2933 45.9881 10.6C46.8014 11.1866 47.6481 11.48 48.5281 11.48C48.9414 11.48 49.3281 11.4266 49.6881 11.32C50.0614 11.2133 50.3281 11.1066 50.4881 11ZM58.4423 11.3H64.6023C64.909 11.3 65.1356 11.3133 65.2823 11.34C65.4423 11.3533 65.6223 11.4133 65.8223 11.52C66.1823 11.7066 66.3623 12.2266 66.3623 13.08C66.3623 14.0133 66.1156 14.56 65.6223 14.72C65.3956 14.8 65.049 14.84 64.5823 14.84H56.6623C55.729 14.84 55.1823 14.5866 55.0223 14.08C54.9423 13.8666 54.9023 13.5266 54.9023 13.06V1.93997C54.9023 1.25997 55.029 0.799965 55.2823 0.559965C55.5356 0.306632 56.0156 0.179965 56.7223 0.179965H64.6023C64.909 0.179965 65.1356 0.193299 65.2823 0.219966C65.4423 0.233299 65.6223 0.293298 65.8223 0.399965C66.1823 0.586632 66.3623 1.10663 66.3623 1.95996C66.3623 2.8933 66.1156 3.43997 65.6223 3.59997C65.3956 3.67996 65.049 3.71996 64.5823 3.71996H58.4423V5.73997H62.4023C62.709 5.73997 62.9356 5.7533 63.0823 5.77997C63.2423 5.7933 63.4223 5.8533 63.6223 5.95997C63.9823 6.14663 64.1623 6.66663 64.1623 7.51997C64.1623 8.4533 63.909 8.99997 63.4023 9.15997C63.1756 9.23997 62.829 9.27997 62.3623 9.27997H58.4423V11.3Z" fill="#6DCD45"/>
<path d="M1.7187 26.94C1.7187 26.6333 1.72537 26.4066 1.7387 26.26C1.76537 26.1 1.83203 25.92 1.9387 25.72C2.12537 25.36 2.64537 25.18 3.4987 25.18C4.43203 25.18 4.98537 25.4266 5.1587 25.92C5.22537 26.1466 5.2587 26.4933 5.2587 26.96V38.08C5.2587 38.4 5.24537 38.6333 5.2187 38.78C5.20537 38.9266 5.14537 39.1 5.0387 39.3C4.85203 39.66 4.33203 39.84 3.4787 39.84C2.54537 39.84 1.9987 39.5866 1.8387 39.08C1.7587 38.8666 1.7187 38.5266 1.7187 38.06V26.94ZM7.81542 25.16H18.9354C19.3621 25.16 19.6754 25.2133 19.8754 25.32C20.0754 25.4133 20.2088 25.5666 20.2754 25.78C20.3421 25.9933 20.3754 26.2733 20.3754 26.62C20.3754 26.9666 20.3421 27.2466 20.2754 27.46C20.2088 27.66 20.0954 27.8 19.9354 27.88C19.6954 28 19.3554 28.06 18.9154 28.06H15.0954V38.12C15.0954 38.4266 15.0821 38.6533 15.0554 38.8C15.0421 38.9466 14.9821 39.12 14.8754 39.32C14.7821 39.5066 14.6088 39.64 14.3554 39.72C14.1021 39.8 13.7688 39.84 13.3554 39.84C12.9421 39.84 12.6088 39.8 12.3554 39.72C12.1154 39.64 11.9421 39.5066 11.8354 39.32C11.7421 39.12 11.6821 38.9466 11.6554 38.8C11.6421 38.64 11.6354 38.4066 11.6354 38.1V28.06H7.79542C7.36875 28.06 7.05542 28.0133 6.85542 27.92C6.65542 27.8133 6.52209 27.6533 6.45542 27.44C6.38875 27.2266 6.35542 26.9466 6.35542 26.6C6.35542 26.2533 6.38875 25.98 6.45542 25.78C6.52209 25.5666 6.63542 25.42 6.79542 25.34C7.03542 25.22 7.37542 25.16 7.81542 25.16ZM26.9365 26.22L32.3365 37.38C32.5632 37.8333 32.6765 38.1733 32.6765 38.4C32.6765 38.88 32.2898 39.3133 31.5165 39.7C31.0632 39.9266 30.7032 40.04 30.4365 40.04C30.1832 40.04 29.9698 39.98 29.7965 39.86C29.6365 39.74 29.5165 39.6133 29.4365 39.48C29.3698 39.3466 29.2698 39.1466 29.1365 38.88L28.0965 36.72H22.5565L21.5165 38.88C21.3832 39.1466 21.2765 39.34 21.1965 39.46C21.1298 39.58 21.0098 39.7066 20.8365 39.84C20.6765 39.96 20.4632 40.02 20.1965 40.02C19.9432 40.02 19.5898 39.9066 19.1365 39.68C18.3632 39.3066 17.9765 38.88 17.9765 38.4C17.9765 38.1733 18.0898 37.8333 18.3165 37.38L23.7165 26.2C23.8632 25.8933 24.0832 25.6466 24.3765 25.46C24.6832 25.2733 25.0032 25.18 25.3365 25.18C26.0565 25.18 26.5898 25.5266 26.9365 26.22ZM25.3165 31.02L23.9965 33.76H26.6565L25.3165 31.02ZM37.3095 36.88H42.7495C43.1895 36.88 43.5095 36.9333 43.7095 37.04C43.9095 37.1333 44.0428 37.2866 44.1095 37.5C44.1761 37.7133 44.2095 38 44.2095 38.36C44.2095 38.7066 44.1761 38.9866 44.1095 39.2C44.0428 39.4133 43.9295 39.56 43.7695 39.64C43.5161 39.7733 43.1695 39.84 42.7295 39.84H35.5295C34.5961 39.84 34.0495 39.5866 33.8895 39.08C33.8095 38.8666 33.7695 38.5266 33.7695 38.06V26.94C33.7695 26.6333 33.7761 26.4066 33.7895 26.26C33.8161 26.1 33.8828 25.92 33.9895 25.72C34.1761 25.36 34.6961 25.18 35.5495 25.18C36.4828 25.18 37.0361 25.4266 37.2095 25.92C37.2761 26.1466 37.3095 26.4933 37.3095 26.96V36.88ZM45.5078 26.94C45.5078 26.6333 45.5144 26.4066 45.5278 26.26C45.5544 26.1 45.6211 25.92 45.7278 25.72C45.9144 25.36 46.4344 25.18 47.2878 25.18C48.2211 25.18 48.7744 25.4266 48.9478 25.92C49.0144 26.1466 49.0478 26.4933 49.0478 26.96V38.08C49.0478 38.4 49.0344 38.6333 49.0078 38.78C48.9944 38.9266 48.9344 39.1 48.8278 39.3C48.6411 39.66 48.1211 39.84 47.2678 39.84C46.3344 39.84 45.7878 39.5866 45.6278 39.08C45.5478 38.8666 45.5078 38.5266 45.5078 38.06V26.94ZM59.1045 26.22L64.5045 37.38C64.7312 37.8333 64.8445 38.1733 64.8445 38.4C64.8445 38.88 64.4578 39.3133 63.6845 39.7C63.2311 39.9266 62.8711 40.04 62.6045 40.04C62.3511 40.04 62.1378 39.98 61.9645 39.86C61.8045 39.74 61.6845 39.6133 61.6045 39.48C61.5378 39.3466 61.4378 39.1466 61.3045 38.88L60.2645 36.72H54.7245L53.6845 38.88C53.5511 39.1466 53.4445 39.34 53.3645 39.46C53.2978 39.58 53.1778 39.7066 53.0045 39.84C52.8445 39.96 52.6311 40.02 52.3645 40.02C52.1111 40.02 51.7578 39.9066 51.3045 39.68C50.5311 39.3066 50.1445 38.88 50.1445 38.4C50.1445 38.1733 50.2578 37.8333 50.4845 37.38L55.8845 26.2C56.0311 25.8933 56.2511 25.6466 56.5445 25.46C56.8511 25.2733 57.1711 25.18 57.5045 25.18C58.2245 25.18 58.7578 25.5266 59.1045 26.22ZM57.4845 31.02L56.1645 33.76H58.8245L57.4845 31.02Z" fill="white"/>
</svg>
